<?xml version="1.0" standalone="no"?>
<!DOCTYPE svg PUBLIC "-//W3C//DTD SVG 20010904//EN"
 "http://www.w3.org/TR/2001/REC-SVG-20010904/DTD/svg10.dtd">
<svg version="1.0" xmlns="http://www.w3.org/2000/svg"
 width="454.000000pt" height="428.000000pt" viewBox="0 0 454.000000 428.000000"
 preserveAspectRatio="xMidYMid meet">

<g transform="translate(0.000000,428.000000) scale(0.100000,-0.100000)"
fill="#000000" stroke="none">
<path d="M2755 3077 c-78 -41 -184 -147 -218 -217 -60 -125 -72 -277 -32 -397
22 -65 33 -66 113 -13 84 56 154 137 199 227 l38 77 0 135 c0 114 -4 143 -20
178 l-20 42 -60 -32z"/>
<path d="M1885 3038 c-38 -134 -30 -250 24 -365 39 -82 157 -206 232 -243 l56
-29 12 26 c7 14 19 70 28 123 17 95 17 99 -5 185 -25 102 -65 174 -137 244
-49 49 -157 121 -181 121 -6 0 -19 -28 -29 -62z"/>
<path d="M1415 2503 c-11 -2 -48 -13 -83 -25 l-63 -20 27 -46 c50 -88 104
-151 162 -190 112 -75 194 -97 325 -89 87 5 197 30 197 44 0 3 -20 39 -45 79
-77 123 -185 203 -322 238 -57 15 -153 19 -198 9z"/>
<path d="M3100 2496 c-64 -18 -138 -58 -197 -104 -48 -39 -153 -180 -153 -206
0 -32 152 -62 271 -53 123 10 234 61 317 148 43 46 114 158 109 174 -14 40
-254 69 -347 41z"/>
<path d="M1610 1881 c-128 -41 -211 -107 -292 -230 -26 -40 -48 -77 -48 -82 0
-17 119 -51 200 -56 73 -4 96 -1 167 21 81 26 168 81 225 142 29 32 118 163
118 176 0 4 -30 16 -66 28 -85 26 -225 27 -304 1z"/>
<path d="M2828 1886 c-48 -13 -78 -31 -78 -48 0 -16 96 -151 132 -185 91 -88
260 -150 378 -140 70 6 157 32 179 53 29 26 -85 181 -182 248 -89 62 -171 86
-285 85 -53 0 -118 -6 -144 -13z"/>
<path d="M2135 1594 c-205 -136 -287 -282 -272 -483 7 -96 32 -181 53 -181 9
0 53 24 99 54 125 81 191 178 221 320 17 84 15 127 -12 249 -18 77 -27 82 -89
41z"/>
<path d="M2505 1568 c-59 -198 -12 -385 131 -525 65 -63 167 -128 185 -118 19
12 41 162 37 253 -3 87 -7 105 -40 175 -22 46 -58 99 -89 132 -53 56 -166 135
-193 135 -10 0 -21 -20 -31 -52z"/>
</g>
</svg>
